<svg viewBox="0 -20 512 512" xmlns="http://www.w3.org/2000/svg"><path d="m512 135.929688v-135.929688h-42.472656l-21.261719 95.683594-70.046875 32.847656-21.886719 66.035156 43.148438 50.855469zm0 0" fill="#c78f2c"/><path d="m378.21875 128.53125h-122.21875l-28.214844 220.542969 93.65625 63.023437 78.039063-166.675781zm0 0" fill="#e1d3ce"/><path d="m256 472.46875h37.171875l28.269531-60.371094-65.441406-91.238281-23 85.042969zm0 0" fill="#b4aaaa"/><path d="m190.558594 412.097656 28.269531 60.371094h37.171875v-151.609375l-47.667969 25.707031zm0 0" fill="#e1d3ce"/><path d="m256 128.53125h-122.21875l-32.78125 40.703125 11.519531 76.1875 78.039063 166.675781 65.441406-91.238281zm0 0" fill="#f5f0eb"/><path d="m63.734375 95.683594-21.261719-95.683594h-42.472656v135.929688l112.519531 109.492187 21.261719-116.890625zm0 0" fill="#e7c994"/></svg>